<svg xmlns="http://www.w3.org/2000/svg" viewBox="0 0 600 300" fill="none">
  <rect width="600" height="300" rx="12" fill="#F0F8FF"/>
  <text x="300" y="30" text-anchor="middle" font-family="Arial,sans-serif" font-size="18" font-weight="bold" fill="#0066CC">Water Purification: Boiling</text>
  <!-- Pot -->
  <rect x="200" y="120" width="200" height="120" rx="8" fill="#888" stroke="#333" stroke-width="2"/>
  <ellipse cx="300" cy="120" rx="100" ry="15" fill="#999" stroke="#333" stroke-width="2"/>
  <!-- Water inside -->
  <rect x="205" y="140" width="190" height="95" fill="#66BBFF" opacity="0.6"/>
  <!-- Bubbles -->
  <circle cx="250" cy="200" r="8" fill="none" stroke="#fff" stroke-width="2" opacity="0.8"/>
  <circle cx="300" cy="190" r="6" fill="none" stroke="#fff" stroke-width="2" opacity="0.8"/>
  <circle cx="340" cy="210" r="7" fill="none" stroke="#fff" stroke-width="2" opacity="0.8"/>
  <circle cx="270" cy="175" r="5" fill="none" stroke="#fff" stroke-width="2" opacity="0.8"/>
  <!-- Steam -->
  <path d="M260 105 Q255 85 265 70" stroke="#CCC" stroke-width="2" fill="none"/>
  <path d="M300 105 Q295 80 305 60" stroke="#CCC" stroke-width="2" fill="none"/>
  <path d="M340 105 Q335 85 345 70" stroke="#CCC" stroke-width="2" fill="none"/>
  <!-- Fire -->
  <path d="M250 245 Q260 260 270 250 Q280 265 290 250 Q300 265 310 250 Q320 265 330 250 Q340 265 350 245" fill="#FF6600" stroke="#CC3300" stroke-width="1"/>
  <path d="M270 250 Q280 265 290 255 Q300 268 310 255 Q320 265 330 250" fill="#FFCC00" stroke="none"/>
  <!-- Instructions -->
  <text x="470" y="100" text-anchor="middle" font-family="Arial,sans-serif" font-size="14" font-weight="bold" fill="#333">Steps:</text>
  <text x="470" y="125" text-anchor="middle" font-family="Arial,sans-serif" font-size="12" fill="#333">1. Bring to rolling boil</text>
  <text x="470" y="145" text-anchor="middle" font-family="Arial,sans-serif" font-size="12" fill="#333">2. Boil for 1 minute</text>
  <text x="470" y="165" text-anchor="middle" font-family="Arial,sans-serif" font-size="12" fill="#333">3. At altitude &gt;6,500 ft:</text>
  <text x="470" y="185" text-anchor="middle" font-family="Arial,sans-serif" font-size="12" fill="#333">   boil for 3 minutes</text>
  <text x="470" y="210" text-anchor="middle" font-family="Arial,sans-serif" font-size="12" fill="#333">4. Let cool naturally</text>
  <text x="300" y="290" text-anchor="middle" font-family="Arial,sans-serif" font-size="11" fill="#666">Source: CDC — Making Water Safe in an Emergency</text>
</svg>
